<svg width="156" height="161" viewBox="0 0 156 161" fill="none" xmlns="http://www.w3.org/2000/svg">
<g clip-path="url(#clip0_741_124)">
<path d="M129.836 116.252C134.331 113.85 138.993 111.948 144.13 111.501C144.694 111.451 145.351 111.399 145.821 111.636C146.438 111.948 146.914 112.547 147.45 113.022C146.92 113.513 146.466 114.17 145.843 114.455C144.816 114.924 143.7 115.295 142.587 115.455C137.501 116.186 133.363 118.843 129.366 121.817C128.243 122.653 127.208 123.653 125.985 124.298C125.153 124.737 124.049 124.883 123.094 124.809C121.751 124.707 121.09 123.739 121.379 122.36C121.636 121.134 122.13 119.953 122.584 118.777C124.131 114.762 125.726 110.768 127.254 106.748C127.518 106.051 127.927 104.921 127.616 104.572C125.674 102.38 127.226 101.58 128.857 100.504C129.484 100.091 129.773 99.0625 130.073 98.26C131.312 94.9544 132.495 91.6287 133.825 87.9577C128.209 88.4648 123.078 90.0737 118.153 91.0598C116.873 96.194 115.714 101.103 114.419 105.975C112.665 112.579 110.813 119.156 108.983 125.741C108.814 126.352 108.583 126.965 108.268 127.51C107.639 128.602 106.087 129.027 104.896 128.408C103.843 127.859 103.642 127.009 103.974 125.823C106.92 115.345 109.811 104.853 112.711 94.3615C112.844 93.8784 112.902 93.3734 113.039 92.6468C110 92.1857 107.559 94.2098 104.203 94.0042C105.701 95.2019 106.744 95.9105 107.625 96.7829C108.403 97.5534 108.708 98.4437 107.742 99.4538C106.792 100.446 106.004 99.8909 105.528 99.1883C104.622 97.8528 103.18 97.781 101.905 97.3039C101.439 97.1282 100.894 97.1841 100.402 97.0623C98.3011 96.5433 97.4707 95.8407 97.4906 94.605C97.5165 92.8723 98.775 92.1278 100.125 91.7305C104.721 90.3771 109.311 88.9598 113.981 87.9118C120.517 86.4466 127.11 85.231 133.704 84.0532C135.147 83.7957 135.364 82.9254 135.681 81.8175C134.586 81.8175 133.473 82.0311 132.485 81.7656C131.063 81.3843 130.864 80.1088 131.967 79.2065C132.449 78.8112 133.043 78.5457 133.604 78.2543C135.4 77.3241 137.067 76.1723 138.774 75.1283C140.339 74.1721 142.619 74.4296 144.563 74.0484C146.793 73.6112 149.011 73.0922 151.218 72.5452C152.91 72.128 154.43 72.7888 156.001 73.174V74.7151C153.876 75.4696 151.757 76.2422 149.623 76.9668C149.149 77.1265 148.589 77.0326 148.113 77.1903C145.963 77.905 143.35 78.1525 141.826 79.5658C140.446 80.8473 140.211 83.4045 139.554 85.4246C138.266 89.381 137.031 93.3574 135.761 97.3757C137.485 98.4357 138.895 97.228 140.156 96.8048C142.165 96.1301 143.539 96.5812 145.194 98.1303C144.549 98.5874 144.073 99.1084 143.485 99.31C140.98 100.174 138.449 100.963 135.916 101.741C134.492 102.181 133.588 103.035 133.108 104.488C131.886 108.195 130.569 111.87 129.291 115.557C129.211 115.808 129.129 116.062 129.05 116.313C128.877 116.425 128.703 116.535 128.528 116.647C128.646 116.797 128.843 117.088 128.869 117.074C129.233 116.864 129.576 116.615 129.924 116.375L129.84 116.244L129.836 116.252Z" fill="black"/>
<path d="M0 146.364C3.10056 143.326 6.22303 140.314 9.29373 137.245C17.1716 129.376 25.0753 121.532 32.8437 113.555C34.2018 112.159 35.7371 111.511 37.4378 111.123C39.453 110.666 40.6837 112.215 39.9967 114.233C39.7199 115.044 39.3375 115.916 38.7501 116.509C27.3037 128.041 15.8194 139.537 4.36907 151.013C2.83571 149.654 1.41786 148.394 0 147.133C0 146.875 0 146.62 0 146.362V146.364Z" fill="black"/>
<path d="M4.61002 0C5.13176 0.670717 5.59177 1.40531 6.1852 2.00417C14.0412 9.90705 21.9051 17.8039 29.7989 25.6669C30.9101 26.7728 31.8719 27.9166 32.1646 29.4876C32.539 31.4937 31.7584 32.3661 29.761 32.3641C27.6701 32.3641 26.2164 31.2742 24.8204 29.8609C18.6114 23.5729 12.3684 17.3169 6.09957 11.0868C4.12811 9.12654 2.03717 7.28606 0 5.39169C0 4.87867 0 4.36365 0 3.85063C1.28045 2.56709 2.5609 1.28354 3.84335 0C4.10023 0 4.35513 0 4.61201 0H4.61002Z" fill="#010101"/>
<path d="M68.3766 62.1711C70.2704 60.9554 72.1702 59.7497 74.052 58.5181C74.6833 58.1048 75.2548 57.4401 76.0474 58.1767C76.7902 58.8674 77.0809 59.6439 76.2724 60.4943C75.4161 61.3965 74.6773 62.4905 73.6558 63.1332C71.8396 64.277 69.9339 65.4368 67.9047 66.0397C66.224 66.5387 65.4473 67.5408 64.591 68.8563C62.8625 71.5112 61.0384 74.1162 59.0829 76.6055C58.3242 77.5716 57.1732 78.3022 56.0779 78.917C51.7726 81.3304 46.9953 79.5498 45.3106 74.8149C44.514 72.5732 44.1018 70.1917 43.4288 67.5288C41.7799 68.3632 40.1529 69.1856 38.6136 69.9642C39.1334 71.9064 39.7228 73.5693 40.0056 75.282C40.599 78.8791 39.5058 82.1548 37.4487 85.0273C34.9515 88.5147 31.6916 91.1736 27.6671 92.7605C26.1835 93.3454 24.68 93.6968 22.9814 93.3594C19.2475 92.6168 17.5808 90.5328 18.6043 86.9237C19.5423 83.618 20.8705 80.3822 23.3537 77.879C26.4065 74.8029 29.5867 71.8525 32.7928 68.7684C32.1914 67.7843 31.1898 66.9898 29.6425 66.914C28.9117 66.8781 28.1291 66.7064 27.4858 66.373C25.8868 65.5426 25.6697 64.3369 26.9064 62.9755C28.4556 61.2688 30.1583 59.7018 31.7135 57.999C34.9834 54.4179 38.1317 50.7589 40.0773 46.2056C40.7703 44.5847 41.0092 42.9878 40.6269 41.3589C40.3262 40.0713 39.5595 39.1631 37.9146 39.2589C34.9654 39.4326 32.6355 40.9576 30.2957 42.4767C26.2353 45.1117 23.3219 48.8825 20.8825 52.9287C18.0567 57.6178 15.8941 62.6402 15.3464 68.2155C15.2489 69.2116 15.0637 70.3195 14.53 71.112C14.1158 71.7268 13.0305 72.3157 12.3634 72.2039C11.7301 72.0981 11.0152 71.1459 10.7683 70.4193C10.4955 69.6168 10.6906 68.6467 10.7205 67.7504C10.9555 60.9973 12.0209 54.34 13.1201 47.6908C13.2814 46.7146 13.6657 45.7185 14.1835 44.8781C14.6714 44.0857 15.6213 43.6245 16.4955 44.2054C17.0331 44.5628 17.5549 45.3173 17.6206 45.9441C17.7958 47.583 17.7162 49.2498 17.7381 50.9066C17.5469 50.9625 17.3577 51.0184 17.1666 51.0763C17.2382 51.1841 17.3119 51.2939 17.3836 51.4017C17.4692 51.202 17.5529 51.0024 17.6385 50.8028C19.6558 48.4014 21.6013 45.9361 23.7042 43.6146C26.4822 40.5464 29.8118 38.1949 33.8005 37.0232C35.5867 36.4982 37.5542 36.1508 39.3883 36.3125C43.7215 36.6938 46.2884 40.6343 45.5615 44.968C45.0378 48.09 43.6817 50.7908 41.8018 53.1982C38.8207 57.0189 35.6445 60.6899 32.5121 64.4687C32.5041 64.4587 32.6276 64.6563 32.7809 64.826C35.1905 67.4889 37.598 66.7643 40.5014 65.3769C43.2734 64.0535 44.2412 62.2629 44.6156 59.3764C45.3524 53.7013 47.055 48.2477 49.6578 43.1275C50.1616 42.1354 50.8486 41.0435 51.7527 40.5125C52.4437 40.1073 53.7202 40.267 54.5346 40.6283C55.5841 41.0934 55.0544 42.0136 54.7537 42.9219C53.2422 47.4812 51.8224 52.0724 50.4364 56.6716C49.1719 60.8735 48.7736 65.2033 49.2416 69.543C49.4546 71.5152 50.2173 73.4555 50.9382 75.3319C51.3783 76.4777 52.4278 76.6574 53.4732 75.9487C56.7948 73.693 59.4414 70.8704 61.1022 66.91C60.2738 66.3271 59.5469 65.872 58.8798 65.339C56.5638 63.4925 55.5423 60.9953 55.0524 58.1168C53.6266 49.7389 55.7733 42.2651 60.5705 35.4482C61.132 34.6517 62.0461 34.0249 62.9203 33.5458C65.0152 32.396 67.367 32.939 68.4304 35.045C69.211 36.592 69.7806 38.3846 69.8961 40.1053C70.3839 47.3873 70.0394 54.6195 67.7852 61.6461C67.9804 61.8237 68.1755 62.0014 68.3727 62.179L68.3766 62.1711ZM62.6216 64.0555C66.4171 54.9449 67.9624 45.8683 65.2084 36.081C64.5831 36.6738 64.139 36.9713 63.8542 37.3825C59.6266 43.4788 57.8423 50.2818 58.6369 57.6178C58.8977 60.0312 59.6943 62.6122 62.6216 64.0535V64.0555ZM34.5393 72.2877C30.7119 74.729 27.6312 77.5457 25.3431 81.0989C24.2658 82.7717 23.7899 84.8197 22.8698 86.6103C22.139 88.0356 22.8141 88.9778 23.5648 89.9918C32.0421 87.303 36.7915 79.9431 34.5393 72.2877Z" fill="black"/>
<path d="M83.7079 116.677C83.672 116.926 83.9568 116.95 83.921 117.2L84.3631 117.841C82.1785 118.819 77.8632 120.515 75.6906 121.52C75.0175 121.831 74.4002 122.26 73.761 122.633C74.3026 124.48 74.9618 126.133 75.2545 127.847C75.84 131.293 74.8343 134.481 72.8728 137.253C69.846 141.533 65.8712 144.571 60.7255 146.023C58.8098 146.564 57.1908 145.919 55.6017 145.258C54.2137 144.681 53.7218 143.324 53.686 141.769C53.5924 137.535 55.5399 134.034 58.0989 131.055C60.7434 127.979 64.0053 125.436 66.9983 122.661C67.3667 122.318 67.7471 121.987 68.3186 121.472C67.1437 120.14 65.8572 119.386 64.1307 119.374C62.918 119.366 61.8148 119.076 61.4643 117.707C61.1755 116.577 61.8068 115.808 62.5456 115.014C65.4171 111.926 68.3604 108.89 71.0109 105.618C72.6777 103.562 73.9422 101.16 75.2485 98.8349C75.7285 97.9786 75.9555 96.9106 76.0431 95.9165C76.3338 92.6667 74.3126 91.0578 71.3395 92.0679C67.1018 93.5091 63.601 96.0323 60.7095 99.2681C56.1732 104.344 52.9492 110.243 51.2227 116.884C50.7467 118.717 50.5336 120.617 50.0517 122.448C49.532 124.424 48.6976 125.039 47.2778 124.795C46.3279 124.632 45.3959 123.128 45.5094 121.785C45.7245 119.25 45.9176 116.711 46.2641 114.192C46.9054 109.542 47.6362 104.905 48.373 100.27C48.4905 99.5296 48.8549 98.8329 49.0481 98.1003C49.3707 96.8867 50.3544 96.5473 51.3282 96.723C52.3239 96.9026 53.2499 97.4895 52.9472 98.8569C52.8655 99.2262 52.9153 99.6234 52.9054 100.009C51.7882 101.454 52.3139 103.035 52.4035 105.181C53.0268 103.911 53.3913 103.171 53.7557 102.43C57.3939 97.0663 61.7013 92.4671 67.9004 90.0457C68.7248 89.7244 69.5632 89.4409 70.3996 89.1534C73.5738 88.0655 76.5011 88.6604 78.8569 90.944C81.2127 93.2277 81.1788 96.2579 80.3664 99.1743C79.8984 100.857 79.1397 102.568 78.1042 103.961C74.8383 108.357 71.3793 112.609 67.8805 117.062C68.0258 117.194 68.4819 117.603 68.9299 118.02C70.6246 119.595 72.2754 119.635 74.3843 118.513C77.1025 117.066 80.0776 116.102 82.9412 114.928M69.4397 124.634C66.9346 126.959 64.4414 129.117 62.1354 131.459C59.9767 133.652 58.6106 136.403 57.842 139.361C57.6229 140.206 57.9714 141.421 58.5011 142.138C58.748 142.471 60.132 142.216 60.8589 141.897C64.8556 140.144 67.7052 137.138 69.5194 133.219C70.762 130.534 71.3136 127.722 69.4417 124.632L69.4397 124.634Z" fill="#010101"/>
<path d="M102.977 32.2583C105.688 30.0425 108.127 27.5174 111.038 25.7867C116.286 22.6666 121.057 24.0181 124.345 27.9405C125.946 29.8509 126.625 32.2124 126.762 34.6457C126.916 37.3166 126.796 40.0055 126.796 43.0137C127.881 42.7822 128.919 42.3929 129.954 42.4009C130.59 42.4049 131.223 43.0157 131.856 43.3551C131.532 43.8361 131.229 44.3352 130.868 44.7883C130.717 44.978 130.462 45.1616 130.229 45.1975C126.179 45.8323 124.946 48.9184 123.803 52.282C121.366 59.4483 117.006 65.351 111.451 70.4153C109.603 72.0981 107.376 73.0223 105.028 73.6172C102.145 74.3478 99.6039 72.5732 99.2275 69.6448C98.889 66.9998 99.6557 64.5805 101.113 62.4066C104.003 58.0949 107.8 54.6814 112.028 51.757C114.215 50.2439 116.558 48.9623 118.833 47.579C119.798 46.9901 120.577 46.4332 120.939 45.1257C122.188 40.6243 122.654 36.1149 121.334 31.6115C120.931 30.2382 119.906 28.9187 118.847 27.9146C118.112 27.2179 117.001 27.0083 115.68 27.4116C113.408 28.1042 111.427 29.2101 109.782 30.7791C104.634 35.6837 100.616 41.307 99.0065 48.4314C98.1701 52.1383 97.1127 55.7973 96.0931 59.4603C95.7904 60.5462 95.43 61.676 94.8107 62.5923C94.1734 63.5365 93.2076 64.3229 91.8714 63.7021C90.5352 63.0813 90.5472 61.9096 90.814 60.7438C91.5209 57.6557 92.2319 54.5676 93.0523 51.5095C94.496 46.1278 96.0234 40.77 97.517 35.4003C97.6524 34.9092 97.748 34.4022 97.9391 33.9351C99.2634 30.6833 100.16 30.4238 102.975 32.2623L102.977 32.2583ZM119.058 51.3198C113.992 54.0766 109.973 56.959 106.643 60.7238C104.957 62.6322 103.256 64.5944 103.025 67.2893C102.945 68.2195 102.499 69.5829 103.772 69.9322C104.425 70.1119 105.395 69.4771 106.102 69.024C107.06 68.4111 107.96 67.6785 108.786 66.894C113.261 62.6581 116.461 57.5619 119.058 51.3198Z" fill="#010101"/>
<path d="M74.3552 76.6194C74.8371 70.6249 76.1434 65.9878 77.4179 61.3307C79.2221 54.7273 81.0442 48.1279 83.8181 41.8559C84.9453 39.3088 86.3432 36.8735 87.7272 34.4521C88.5198 33.0647 89.9137 32.7573 91.4073 33.0448C92.4687 33.2484 92.9446 34.2545 92.5563 35.3444C92.385 35.8235 92.2098 36.3105 91.9549 36.7457C86.6977 45.7165 84.0969 55.6635 81.4524 65.5845C80.6379 68.6387 79.9987 71.7448 79.4431 74.8588C79.1583 76.4478 78.5111 78.436 79.9529 79.5678C81.2473 80.5818 82.8324 79.3921 84.1129 78.7234C86.9247 77.2562 89.6648 75.6473 92.4049 74.0424C93.5141 73.3916 94.5875 72.5113 95.848 73.5293C96.549 74.0943 95.9277 75.5834 94.3266 76.5835C90.8955 78.7234 87.6814 81.1907 83.7166 82.4722C77.3522 84.5303 73.7199 80.8094 74.3571 76.6194H74.3552Z" fill="#010101"/>
<path d="M149.963 147.125C148.848 148.2 147.474 149.526 146.38 150.582C140.325 144.51 134.207 138.375 127.795 131.944C128.731 131.005 130.141 129.59 131.373 128.354C137.588 134.63 143.754 140.857 149.963 147.127V147.125Z" fill="#020202"/>
<path d="M149.957 4.77486C143.833 10.9071 137.781 16.9675 131.495 23.2615C130.238 21.8961 128.9 20.4429 127.811 19.2612C133.942 13.1149 140.055 6.98863 146.171 0.860352C147.26 1.9862 148.551 3.32164 149.957 4.77486Z" fill="#010101"/>
<path d="M53.753 102.43C53.3886 103.171 53.0262 103.911 52.4009 105.181C52.3113 103.035 51.7856 101.454 52.9027 100.009C53.4384 100.727 52.3013 102.035 53.751 102.43H53.753Z" fill="#AFAFAF"/>
<path d="M68.3765 62.1711C68.1814 61.9934 67.9862 61.8157 67.7891 61.6381C67.9842 61.8157 68.1794 61.9934 68.3765 62.1711Z" fill="#FEFEFE"/>
<path d="M17.6419 50.7968C17.5562 50.9964 17.4726 51.1961 17.387 51.3957C17.3153 51.2879 17.2416 51.1781 17.1699 51.0703C17.3611 51.0144 17.5503 50.9585 17.7414 50.9006L17.6439 50.7968H17.6419Z" fill="#FEFEFE"/>
<path d="M83.035 111.652L82.9434 111.744L83.035 111.652Z" fill="#FEFEFE"/>
<path d="M52.2715 19.9019H49.9894V23.4631H52.6021L52.4229 24.7347H48.6074V14.4164H52.397V15.7H49.9874V18.6304H52.2696V19.9019H52.2715Z" fill="black"/>
<path d="M55.5577 21.7544V22.3752C55.5577 23.2296 55.8325 23.6947 56.4857 23.6947C57.1389 23.6947 57.3699 23.1298 57.3699 22.2654C57.3699 21.1156 57.1209 20.7184 56.0257 19.856C54.9205 18.9857 54.343 18.4407 54.343 16.9156C54.343 15.5782 54.7452 14.2547 56.5016 14.2607C58.2461 14.2647 58.5866 15.4824 58.5866 16.6821V17.2031H57.2165V16.72C57.2165 15.9435 57.0771 15.4584 56.4737 15.4584C55.8704 15.4584 55.723 15.9794 55.723 16.716C55.723 17.5424 55.8823 17.9018 56.8043 18.5884C58.2978 19.7063 58.7618 20.3431 58.7618 22.0638C58.7618 23.521 58.2919 24.8824 56.4479 24.8824C54.6038 24.8824 54.1797 23.7186 54.1797 22.3592V21.7544H55.5597H55.5577Z" fill="black"/>
<path d="M61.774 15.7H60.1152V14.4164H64.8129V15.7H63.1541V24.7347H61.774V15.7Z" fill="black"/>
<path d="M66.5273 14.4164H68.5884C70.7889 14.4164 71.215 15.6541 71.215 17.4526V21.4589C71.215 23.0399 70.9562 24.7347 68.5585 24.7347H66.5273V14.4164ZM67.9074 23.5489H68.463C69.5921 23.5489 69.8071 22.8623 69.8071 21.6745V17.3229C69.8071 16.2709 69.6219 15.6121 68.461 15.6121H67.9054V23.5489H67.9074Z" fill="black"/>
<path d="M73.2051 24.7347V22.5129H74.5851V24.7347H73.2051Z" fill="black"/>
<path d="M79.2812 24.7347V24.561C79.2912 22.7904 80.028 21.5627 81.1193 19.9878C81.9417 18.81 82.2046 18.4008 82.2046 17.2849C82.2046 16.1691 82.0612 15.7339 81.426 15.7339C80.8445 15.7339 80.6214 16.181 80.6214 17.0075V17.5065H79.343V16.9655C79.343 15.8337 79.6994 14.5701 81.4877 14.5701C83.1485 14.5701 83.5946 15.666 83.5946 17.2031C83.5946 18.7401 83.1146 19.4408 82.2962 20.5726C81.4976 21.6905 80.8982 22.7066 80.8226 23.537H83.7997L83.6105 24.7327H79.2852L79.2812 24.7347Z" fill="black"/>
<path d="M90.0102 17.1911V22.1436C90.0102 23.7446 89.4705 24.8584 87.7141 24.8584C86.0912 24.8584 85.5137 23.7645 85.5137 22.1636V17.2809C85.5137 15.4764 86.3202 14.5701 87.7938 14.5701C89.2674 14.5701 90.0122 15.4544 90.0122 17.1911H90.0102ZM86.8758 17.1312V22.3033C86.8758 23.1577 87.1346 23.5949 87.7659 23.5949C88.3972 23.5949 88.6361 23.1896 88.6361 22.2614V17.1033C88.6361 16.2489 88.3474 15.8357 87.7619 15.8357C87.1765 15.8357 86.8778 16.197 86.8778 17.1312H86.8758Z" fill="black"/>
<path d="M91.8711 24.7347V24.561C91.8811 22.7904 92.6179 21.5627 93.7091 19.9878C94.5316 18.81 94.7944 18.4008 94.7944 17.2849C94.7944 16.1691 94.651 15.7339 94.0158 15.7339C93.4343 15.7339 93.2113 16.181 93.2113 17.0075V17.5065H91.9328V16.9655C91.9328 15.8337 92.2893 14.5701 94.0775 14.5701C95.7383 14.5701 96.1844 15.666 96.1844 17.2031C96.1844 18.7401 95.7045 19.4408 94.886 20.5726C94.0875 21.6905 93.4881 22.7066 93.4124 23.537H96.3895L96.2003 24.7327H91.8751L91.8711 24.7347Z" fill="black"/>
<path d="M102.602 17.1911V22.1436C102.602 23.7446 102.062 24.8584 100.306 24.8584C98.683 24.8584 98.1055 23.7645 98.1055 22.1636V17.2809C98.1055 15.4764 98.912 14.5701 100.386 14.5701C101.859 14.5701 102.604 15.4544 102.604 17.1911H102.602ZM99.4676 17.1312V22.3033C99.4676 23.1577 99.7264 23.5949 100.358 23.5949C100.989 23.5949 101.228 23.1896 101.228 22.2614V17.1033C101.228 16.2489 100.939 15.8357 100.354 15.8357C99.7683 15.8357 99.4696 16.197 99.4696 17.1312H99.4676Z" fill="black"/>
<path d="M28.6095 156.259C28.966 156.726 29.1432 157.303 29.1432 157.986C29.1432 158.952 28.7688 159.696 28.0181 160.217C27.2673 160.739 26.1741 160.998 24.7383 160.998H19.043V149.959H24.4237C25.7658 149.959 26.7974 150.217 27.5143 150.732C28.2312 151.247 28.5916 151.945 28.5916 152.828C28.5916 153.365 28.4622 153.842 28.2053 154.263C27.9484 154.684 27.5899 155.015 27.1279 155.257C27.7572 155.457 28.2491 155.792 28.6075 156.259H28.6095ZM21.576 151.883V154.484H24.109C24.7383 154.484 25.2162 154.375 25.5408 154.153C25.8654 153.934 26.0287 153.606 26.0287 153.175C26.0287 152.744 25.8654 152.42 25.5408 152.205C25.2162 151.989 24.7383 151.881 24.109 151.881H21.576V151.883ZM26.0685 158.744C26.4091 158.523 26.5803 158.181 26.5803 157.718C26.5803 156.804 25.9032 156.347 24.5511 156.347H21.578V159.076H24.5511C25.2222 159.076 25.728 158.966 26.0685 158.744Z" fill="black"/>
<path d="M46.9835 158.635H41.8717L40.8959 161H38.2832L43.1919 149.961H45.709L50.6317 161H47.9573L46.9815 158.635H46.9835ZM46.181 156.694L44.4345 152.468L42.6881 156.694H46.181Z" fill="black"/>
<path d="M64.4482 156.662L62.9686 158.207V160.998H60.4355V149.959H62.9686V155.115L67.8454 149.959H70.6772L66.1149 154.88L70.944 160.998H67.9709L64.4462 156.662H64.4482Z" fill="black"/>
<path d="M89.2575 158.95V161H80.7305V149.961H89.0524V152.011H83.2635V154.409H88.3773V156.395H83.2635V158.95H89.2575Z" fill="black"/>
<path d="M106.953 161L104.828 157.926H102.485V161H99.9355V149.961H104.703C105.679 149.961 106.525 150.123 107.244 150.45C107.963 150.778 108.514 151.239 108.903 151.838C109.291 152.436 109.484 153.147 109.484 153.967C109.484 154.788 109.287 155.495 108.895 156.087C108.502 156.68 107.943 157.135 107.218 157.451L109.687 160.998H106.949L106.953 161ZM106.308 152.54C105.908 152.209 105.326 152.043 104.562 152.043H102.485V155.892H104.562C105.326 155.892 105.91 155.724 106.308 155.387C106.706 155.051 106.905 154.576 106.905 153.967C106.905 153.359 106.706 152.872 106.308 152.54Z" fill="black"/>
<path d="M125.281 157.087V160.998H122.732V157.056L118.469 149.959H121.175L124.116 154.864L127.058 149.959H129.559L125.279 157.087H125.281Z" fill="black"/>
<path d="M91.0505 124.298C90.8215 125.41 90.3635 126.181 89.9134 126.887C89.4574 127.598 89.1109 128.205 89.1647 128.987C89.1826 129.335 89.318 129.782 89.4952 130.275L89.3618 130.005C89.4614 130.235 89.551 130.432 89.6326 130.646C89.308 130.047 88.9576 129.524 88.7027 129.179C88.2227 128.562 87.4859 128.346 86.7113 128.001C85.9307 127.66 85.0047 127.221 84.2161 126.127C84.017 125.855 84.017 126.047 84.1464 126.51C84.2141 126.742 84.3017 127.041 84.4352 127.38C84.5726 127.718 84.7359 128.097 84.9151 128.494C85.0047 128.692 85.0943 128.895 85.1959 129.097C85.3034 129.297 85.4129 129.498 85.5224 129.698C85.7455 130.097 85.9625 130.49 86.1876 130.85C86.6655 131.556 87.0916 132.149 87.3963 132.443C87.6831 132.71 88.0435 132.952 88.4279 133.159C88.8122 133.367 89.2184 133.545 89.6346 133.67C90.4491 133.932 91.1759 134.052 91.4826 134.095C91.4826 134.095 91.5005 134.127 91.5364 134.185C91.5742 134.241 91.632 134.325 91.7017 134.429C91.845 134.638 92.0502 134.94 92.2951 135.301C92.5301 135.67 92.8587 136.06 93.1912 136.493C93.3625 136.706 93.5297 136.934 93.7149 137.154C93.9061 137.367 94.1013 137.585 94.2964 137.802C94.4916 138.02 94.6867 138.238 94.8779 138.451C95.083 138.653 95.2861 138.85 95.4813 139.042C95.8756 139.421 96.232 139.793 96.5745 140.066C97.2436 140.637 97.6877 141.016 97.6877 141.016L98.1218 140.441C98.1218 140.441 97.6658 140.092 96.9828 139.567C96.6303 139.315 96.2659 138.97 95.8577 138.617C95.6545 138.437 95.4454 138.254 95.2344 138.066C95.0352 137.864 94.8321 137.661 94.629 137.457C94.4259 137.253 94.2227 137.048 94.0216 136.846C93.8284 136.639 93.6512 136.423 93.472 136.219C93.1195 135.81 92.775 135.437 92.5241 135.084C92.2612 134.738 92.0422 134.451 91.8889 134.249C91.7315 134.05 91.6559 133.928 91.6559 133.928C91.7534 133.58 91.9466 132.87 92.1059 132.115C92.2632 131.359 92.4444 130.524 92.3747 129.905C92.3469 129.55 92.2413 128.949 92.076 128.289C92.0063 127.953 91.9327 127.596 91.859 127.235C91.8192 127.057 91.7773 126.879 91.7375 126.704C91.7037 126.526 91.6718 126.35 91.6399 126.179C91.5742 125.837 91.5065 125.516 91.4408 125.236C91.3771 124.955 91.3372 124.705 91.2875 124.522C91.1919 124.152 91.1043 124.021 91.0525 124.294L91.0505 124.298Z" fill="black"/>
<path d="M88.271 128.175C88.271 128.175 88.1813 127.931 88.0678 127.534C87.9543 127.137 87.7671 126.604 87.5959 126.019C87.4386 125.43 87.2255 124.807 87.0602 124.234C86.8929 123.661 86.7077 123.152 86.5265 122.811C86.192 122.122 85.5727 121.771 84.8717 121.304C84.5292 121.07 84.1747 120.805 83.8262 120.456C83.4837 120.104 83.1213 119.667 82.8544 119.082C82.717 118.793 82.6812 118.972 82.715 119.434C82.7569 119.893 82.9022 120.631 83.0775 121.446C83.4777 123.077 84.1747 124.983 84.6407 125.66C84.8836 126.025 85.2281 126.376 85.6065 126.692C85.9869 127.007 86.4289 127.277 86.8212 127.5C87.2155 127.722 87.576 127.893 87.8368 128.007C88.0997 128.121 88.273 128.179 88.273 128.179L88.271 128.175Z" fill="black"/>
<path d="M90.2456 118.499C90.0305 119.018 89.8095 119.434 89.5367 119.801C89.2698 120.166 88.9751 120.478 88.7003 120.769C88.1686 121.35 87.6887 121.861 87.5891 122.609C87.5533 122.981 87.5951 123.508 87.6747 124.091C87.7504 124.674 87.9257 125.296 88.071 125.881C88.2303 126.46 88.4315 126.981 88.5609 127.364C88.6923 127.748 88.7999 127.979 88.7999 127.979C88.7999 127.979 88.8835 127.827 89.0189 127.578C89.1583 127.326 89.3475 126.979 89.5407 126.592C89.7378 126.203 89.925 125.783 90.1002 125.36C90.2775 124.937 90.4149 124.524 90.4607 124.156C90.5344 123.468 90.4945 121.795 90.4686 120.434C90.4806 119.745 90.4567 119.138 90.4268 118.763C90.4049 118.386 90.3472 118.242 90.2476 118.497L90.2456 118.499Z" fill="black"/>
<path d="M86.6459 121.939C86.6459 121.939 86.6121 121.681 86.5603 121.272C86.5006 120.865 86.4627 120.302 86.3851 119.697C86.2496 118.485 86.1202 117.09 85.8972 116.355C85.6522 115.623 85.1186 115.176 84.5132 114.607C83.9118 114.038 83.2248 113.345 82.8564 112.122C82.7608 111.816 82.701 111.988 82.6692 112.443C82.6552 112.67 82.6433 112.968 82.6473 113.311C82.6612 113.657 82.6871 114.048 82.719 114.459C82.7528 114.87 82.7867 115.301 82.8404 115.731C82.9041 116.16 82.9738 116.583 83.0475 116.978C83.1152 117.373 83.1969 117.741 83.2905 118.054C83.3781 118.368 83.4637 118.629 83.5414 118.815C83.625 119.012 83.7345 119.214 83.86 119.412C83.9914 119.609 84.1468 119.803 84.3081 119.99C84.6327 120.366 84.9971 120.711 85.3376 121.001C85.6761 121.292 86.0187 121.524 86.2536 121.685C86.4946 121.847 86.6459 121.937 86.6459 121.937V121.939Z" fill="black"/>
<path d="M90.2531 112.668C89.6895 113.643 89.0125 114.202 88.3792 114.695C87.7479 115.188 87.1704 115.615 86.9773 116.337C86.7602 117.06 86.7602 118.449 86.8757 119.647C86.9434 120.244 86.9992 120.799 87.0768 121.198C87.1545 121.597 87.2043 121.847 87.2043 121.847C87.2043 121.847 87.3158 121.713 87.499 121.494C87.6822 121.274 87.9112 120.971 88.1821 120.623C88.4509 120.276 88.7317 119.891 88.9706 119.505C89.0921 119.312 89.1976 119.12 89.2932 118.93C89.3948 118.741 89.4764 118.553 89.5362 118.374C89.5899 118.206 89.6437 117.974 89.6915 117.699C89.7353 117.425 89.7891 117.11 89.8508 116.771C89.9066 116.431 89.9603 116.072 90.0081 115.713C90.0659 115.351 90.1236 114.988 90.1794 114.645C90.2312 114.301 90.273 113.976 90.3029 113.689C90.3427 113.401 90.3805 113.152 90.3945 112.96C90.4263 112.577 90.3885 112.425 90.2531 112.666V112.668Z" fill="black"/>
<path d="M86.1408 115.719C86.1408 115.719 86.1408 115.655 86.1488 115.537C86.1548 115.421 86.1647 115.254 86.1767 115.048C86.1966 114.637 86.2205 114.074 86.2304 113.465C86.2683 112.858 86.3001 112.203 86.3001 111.606C86.2922 111.008 86.3121 110.473 86.2404 110.093C86.1109 109.337 85.6111 108.816 85.0993 108.175C84.8404 107.854 84.5696 107.502 84.3307 107.073C84.0897 106.642 83.8826 106.135 83.781 105.508C83.6775 104.883 83.4246 106.151 83.3429 107.79C83.2414 109.423 83.339 111.407 83.56 112.179C83.6715 112.593 83.8726 113.028 84.1355 113.443C84.4063 113.86 84.719 114.255 85.0157 114.593C85.3124 114.93 85.5932 115.212 85.8003 115.409C86.0054 115.607 86.1428 115.719 86.1428 115.719H86.1408Z" fill="black"/>
<path d="M91.0425 107.005C90.696 107.456 90.3455 107.8 89.989 108.081C89.6306 108.363 89.2642 108.58 88.9157 108.782C88.2108 109.187 87.6133 109.536 87.3087 110.225C87.1633 110.57 87.004 111.082 86.9243 111.664C86.8367 112.245 86.767 112.89 86.7212 113.491C86.7013 114.094 86.6953 114.651 86.6953 115.056C86.6953 115.26 86.6953 115.425 86.6973 115.539C86.6973 115.653 86.7033 115.717 86.7033 115.717C86.7033 115.717 86.8367 115.601 87.0538 115.415C87.2708 115.226 87.5655 114.962 87.8782 114.659C88.1908 114.355 88.5234 114.016 88.8121 113.667C89.1089 113.319 89.3857 112.962 89.5489 112.621C89.8457 111.976 90.3077 110.323 90.7039 108.976C91.0823 107.624 91.381 106.56 91.0405 107.005H91.0425Z" fill="black"/>
<path d="M86.595 109.299C86.595 109.299 86.6328 109.043 86.7164 108.64C86.7941 108.237 86.8977 107.682 86.9932 107.081C87.2223 105.885 87.4473 104.502 87.4373 103.742C87.3796 102.204 85.7407 101.442 85.5654 98.8928C85.5515 98.5774 85.4479 98.7271 85.3026 99.1523C85.1632 99.5795 85.0078 100.294 84.8505 101.093C84.7669 101.49 84.7072 101.915 84.6574 102.338C84.6036 102.761 84.5578 103.181 84.522 103.576C84.4503 104.364 84.4662 105.059 84.51 105.45C84.6016 106.291 85.1353 107.281 85.6292 108.027C85.8761 108.403 86.1131 108.72 86.2903 108.944C86.4715 109.167 86.593 109.299 86.593 109.299H86.595Z" fill="black"/>
<path d="M88.4845 104.009C88.0723 104.648 87.7238 105.993 87.4789 107.173C87.3733 107.766 87.2897 108.317 87.232 108.72C87.1682 109.121 87.1543 109.379 87.1543 109.379C87.1543 109.379 87.2997 109.283 87.5366 109.127C87.7776 108.97 88.1062 108.748 88.4606 108.49C89.1676 107.973 89.9562 107.321 90.3943 106.686C90.5994 106.388 90.8383 105.832 91.135 105.199C91.2824 104.881 91.4338 104.544 91.5791 104.203C91.7225 103.861 91.8639 103.516 92.0132 103.195C92.302 102.548 92.527 101.963 92.6525 101.594C92.7839 101.228 92.7899 101.071 92.5927 101.272C91.0653 102.921 89.2671 102.723 88.4845 104.009Z" fill="black"/>
<path d="M87.9021 102.971C87.9021 102.971 88.1929 102.043 88.5334 100.953C88.6847 100.402 88.8858 99.821 89.0292 99.2801C89.1766 98.7391 89.2722 98.2401 89.31 97.8867C89.3717 97.1721 89.0432 96.5892 88.6987 95.8866C88.3581 95.1839 88.0316 94.3715 88.0754 93.1718C88.1032 92.5749 87.6393 93.6928 87.1773 95.142C86.9721 95.8766 86.7571 96.689 86.6097 97.4136C86.4783 98.1462 86.3946 98.781 86.3946 99.1523C86.3867 99.9428 86.785 100.925 87.1474 101.673C87.5098 102.424 87.9021 102.971 87.9021 102.971Z" fill="black"/>
<path d="M94.4154 96.1401C93.6228 96.8348 92.7944 97.0823 92.0775 97.3039C91.3646 97.5254 90.7314 97.7071 90.2873 98.262C90.0583 98.5355 89.8392 98.9826 89.6162 99.4877C89.3971 99.9947 89.1642 100.56 89.0068 101.103C88.8376 101.644 88.6922 102.147 88.5906 102.514C88.5369 102.698 88.507 102.851 88.4831 102.955C88.4592 103.061 88.4473 103.119 88.4473 103.119C88.4473 103.119 89.0347 102.839 89.7636 102.444C90.4944 102.047 91.2929 101.52 91.7748 100.975C91.9959 100.717 92.3065 100.23 92.6311 99.6613C92.9756 99.0984 93.354 98.4616 93.6686 97.8748C94.3477 96.727 94.8137 95.7967 94.4174 96.1381L94.4154 96.1401Z" fill="black"/>
<path d="M89.8414 97.2021C89.8414 97.2021 89.935 96.9865 90.0844 96.6431C90.2238 96.2958 90.4508 95.8347 90.6698 95.3256C91.094 94.2996 91.6356 93.1458 91.7511 92.4491C91.8826 91.7625 91.6436 91.1716 91.3907 90.455C91.2672 90.0976 91.1378 89.7084 91.0701 89.2652C91.0084 88.8281 91.0004 88.333 91.098 87.7601C91.1458 87.4747 91.0263 87.5864 90.8152 87.9398C90.6061 88.2931 90.2875 88.88 90.0107 89.5667C89.4073 90.9221 88.8836 92.6368 88.7999 93.3494C88.7342 94.1239 88.9772 95.1001 89.246 95.8646C89.5347 96.6391 89.8414 97.206 89.8414 97.206V97.2021Z" fill="black"/>
<path d="M92.6712 92.9262C92.2072 93.4253 91.564 94.5192 91.1279 95.5293C90.9029 96.0303 90.6918 96.4934 90.5703 96.8447C90.4449 97.1941 90.3652 97.4136 90.3652 97.4136C90.3652 97.4136 90.9746 97.214 91.6994 96.9046C92.4462 96.6012 93.3065 96.196 93.8043 95.7089C94.2922 95.2618 95.2063 93.9702 95.9809 92.9402C96.3473 92.4092 96.6998 91.9581 96.883 91.6547C97.0682 91.3552 97.104 91.2135 96.8929 91.3552C96.4668 91.6387 96.0486 91.8183 95.6444 91.9401C95.2481 92.0679 94.8717 92.1437 94.5133 92.2076C93.7984 92.3414 93.1532 92.4372 92.6732 92.9282L92.6712 92.9262Z" fill="black"/>
<path d="M92.4122 92.3094C92.5417 92.2954 93.1271 92.2096 93.8122 91.8323C94.4873 91.4451 95.3057 90.8123 95.9151 89.6246C96.1998 89.1255 96.626 87.8939 97.09 86.7281C97.3011 86.1312 97.5341 85.5623 97.7093 85.0872C97.8825 84.6101 98 84.2249 98.014 84.0332C97.8328 84.0792 97.4823 84.2628 97.0402 84.5323C96.5961 84.7998 96.0604 85.1531 95.5526 85.5623C94.4992 86.3508 93.5095 87.321 93.1212 87.806C92.2669 88.9618 92.0319 90.0418 92.0777 90.8542C92.1076 91.6646 92.3565 92.1916 92.4142 92.3074L92.4122 92.3094Z" fill="black"/>
</g>
<defs>
<clipPath id="clip0_741_124">
<rect width="156" height="161" fill="white"/>
</clipPath>
</defs>
</svg>
