<svg width="206" height="39" viewBox="0 0 206 39" fill="none" xmlns="http://www.w3.org/2000/svg">
<g clip-path="url(#clip0_744_2)">
<path d="M19.6523 7.61581C18.0357 7.76975 15.3231 9.0526 15.3231 12.5919V15.9342H11.8223V19.8756H15.3231V29.6058H19.5335V19.8756H22.7169L23.2622 15.9342H19.5349V13.8733C19.5349 12.8651 19.5639 11.8069 20.7829 11.3534C21.52 11.0802 23.3933 11.2286 23.3933 11.2286V7.92231C23.3933 7.92231 21.2716 7.46048 19.655 7.61442L19.6523 7.61581Z" fill="white"/>
<path d="M18.5598 0.211372C8.45478 0.211372 0.261719 8.44238 0.261719 18.5942C0.261719 28.746 8.45478 36.977 18.5598 36.977C28.6648 36.977 36.8579 28.746 36.8579 18.5942C36.8579 8.44238 28.6662 0.211372 18.5598 0.211372ZM23.3914 11.2286C23.3914 11.2286 21.5195 11.0802 20.781 11.3534C19.562 11.8055 19.533 12.8637 19.533 13.8733V15.9342H23.2603L22.715 19.8756H19.5316V29.6058H15.3212V19.8756H11.8204V15.9342H15.3212V12.5919C15.3212 9.0526 18.0338 7.76975 19.6504 7.61581C21.2669 7.46187 23.3887 7.92369 23.3887 7.92369V11.23L23.3914 11.2286Z" fill="#3C2657"/>
<path d="M61.8603 37.9817C72.0205 37.536 79.8972 28.9002 79.4536 18.6931C79.01 8.48591 70.414 0.572643 60.2539 1.0183C50.0938 1.46395 42.217 10.0998 42.6606 20.3069C43.1042 30.5141 51.7002 38.4273 61.8603 37.9817Z" fill="#3C2657"/>
<path d="M70.4395 13.0822C69.9618 13.2139 69.5863 13.1931 69.5863 13.1931L69.6015 13.103C70.046 12.7452 71.167 11.6496 71.3147 11.1364C71.3782 10.9145 71.3022 10.8382 71.3022 10.8313L69.8707 11.4429L68.6725 11.9852C67.8469 11.1059 66.5949 10.5456 65.1951 10.5456C62.7047 10.5456 60.6851 12.318 60.6851 14.5051C60.6851 14.9045 60.7458 15.634 60.8701 15.9987C60.8742 15.8836 60.8701 16.1139 60.8701 15.9987C59.266 15.9544 57.2118 15.2942 55.3813 14.3623C51.7714 12.5247 51.545 11.2529 51.545 11.2529C50.9776 11.8576 50.685 13.8602 51.2593 15.4301C51.6278 16.4356 52.8924 17.3384 52.8924 17.3384C52.8924 17.3384 52.3277 17.3482 51.7355 17.1471C51.1419 16.946 50.9183 16.7476 50.9183 16.7476C50.5663 17.6103 51.2731 19.1525 52.4948 20.2578C53.2071 20.9027 54.5075 21.3076 54.5075 21.3076L52.4741 21.3659C52.3609 23.3505 56.6169 24.5279 56.6169 24.5279C55.3689 25.4918 53.9222 26.0784 52.3705 26.0784C51.5657 26.0784 50.7899 25.9578 50.0527 25.7373C52.1027 27.4334 54.7367 28.6067 57.5997 28.4541C65.1978 28.0533 69.4883 21.4907 69.6926 15.046L69.7023 15.0598C69.7023 15.0598 70.0571 14.8809 70.8191 14.1154C71.5797 13.3512 72.0532 12.4567 72.0532 12.4567C72.0532 12.4567 70.9157 12.9532 70.4381 13.0863L70.4395 13.0822Z" fill="white"/>
<path d="M109.267 14.3795C109.993 14.3795 110.582 13.7878 110.582 13.0578C110.582 12.3279 109.993 11.7362 109.267 11.7362C108.54 11.7362 107.951 12.3279 107.951 13.0578C107.951 13.7878 108.54 14.3795 109.267 14.3795Z" fill="white"/>
<path d="M103.671 23.9974C106.577 23.9974 108.932 21.6314 108.932 18.7121C108.932 15.7927 106.577 13.4268 103.671 13.4268C100.765 13.4268 98.4102 15.7927 98.4102 18.7121C98.4102 21.6314 100.765 23.9974 103.671 23.9974ZM103.671 15.2754C105.56 15.2782 107.089 16.8148 107.091 18.7107C107.091 20.6079 105.56 22.1459 103.671 22.1459C101.783 22.1459 100.252 20.6079 100.252 18.7107C100.252 16.8135 101.783 15.2754 103.671 15.2754Z" fill="white"/>
<path d="M98.4113 29.2827H108.935C111.841 29.2827 114.196 26.9167 114.196 23.9974V13.4254C114.196 10.506 111.841 8.14005 108.935 8.14005H98.4113C95.5055 8.14005 93.1504 10.506 93.1504 13.4254V23.9974C93.1504 26.9167 95.5055 29.2827 98.4113 29.2827ZM94.9919 13.4254C94.9947 11.5281 96.5242 9.9915 98.4113 9.99012H108.935C110.823 9.99289 112.353 11.5295 112.354 13.4254V23.9974C112.351 25.8946 110.822 27.4312 108.935 27.4326H98.4113C96.5229 27.4299 94.9933 25.8932 94.9919 23.9974V13.4254Z" fill="white"/>
<path d="M98.4116 27.4326H108.935C110.823 27.4299 112.353 25.8932 112.354 23.9974V13.4254C112.352 11.5281 110.822 9.9915 108.935 9.99011H98.4116C96.5231 9.99289 94.9936 11.5295 94.9922 13.4254V23.9974C94.9949 25.8946 96.5245 27.4312 98.4116 27.4326ZM109.268 11.7362C109.994 11.7362 110.583 12.3284 110.583 13.0578C110.583 13.7873 109.994 14.3795 109.268 14.3795C108.541 14.3795 107.952 13.7873 107.952 13.0578C107.952 12.3284 108.541 11.7362 109.268 11.7362ZM103.674 13.4254C106.58 13.4254 108.935 15.7913 108.935 18.7107C108.935 21.63 106.58 23.996 103.674 23.996C100.768 23.996 98.413 21.63 98.413 18.7107C98.413 15.7913 100.768 13.4254 103.674 13.4254Z" fill="#3C2657"/>
<path d="M103.671 22.1473C105.56 22.1473 107.091 20.6093 107.091 18.7121C107.088 16.8148 105.558 15.2782 103.671 15.2768C101.783 15.2768 100.252 16.8148 100.252 18.7121C100.252 20.6093 101.783 22.1473 103.671 22.1473Z" fill="#3C2657"/>
<path d="M103.672 37.2114C113.842 37.2114 122.086 28.9291 122.086 18.7121C122.086 8.49508 113.843 0.211372 103.672 0.211372C93.5006 0.211372 85.2578 8.49369 85.2578 18.7107C85.2578 28.9277 93.502 37.21 103.672 37.21V37.2114ZM93.1486 13.4254C93.1486 10.506 95.5036 8.14004 98.4095 8.14004H108.933C111.839 8.14004 114.194 10.506 114.194 13.4254V23.9974C114.194 26.9167 111.839 29.2827 108.933 29.2827H98.4095C95.5036 29.2827 93.1486 26.9167 93.1486 23.9974V13.4254Z" fill="#3C2657"/>
<path d="M145.096 37.2058C145.044 37.2058 144.99 37.2031 144.938 37.2017C144.99 37.2031 145.044 37.2044 145.096 37.2058Z" fill="black"/>
<path d="M137.139 35.1982C137.125 35.1911 137.111 35.184 137.096 35.1755C137.11 35.1826 137.124 35.1911 137.139 35.1982Z" fill="black"/>
<path d="M142.432 32.8941L143.476 27.036C143.476 27.036 144.58 29.3174 147.773 29.2563C151.027 29.1953 153.789 27.9 156.306 22.9669C158.822 18.0949 156.674 9.21485 149.002 7.42719C141.329 5.63953 134.823 10.1399 133.779 16.5541C132.798 22.9669 137.831 25.4952 137.831 25.4952L138.568 22.7825C138.568 22.7825 135.437 18.8355 138.2 14.1493C140.962 9.4631 148.082 8.96938 151.335 12.7305C154.588 16.4917 152.747 22.9669 150.597 24.9404C148.449 26.9139 146.3 26.3592 145.441 25.681C144.581 25.0029 144.152 23.7699 144.95 21.2417C145.748 18.7134 146.485 16.9868 145.871 15.3212C145.256 13.6556 142.617 13.9024 141.758 15.0133C140.898 16.1228 139.856 18.0963 141.021 21.2417L138.136 31.6639V35.672L140.592 36.536L142.433 32.8982L142.432 32.8941Z" fill="white"/>
<path d="M145.498 37.2114C145.363 37.2114 145.229 37.2086 145.094 37.2058C145.228 37.2086 145.363 37.2114 145.498 37.2114Z" fill="black"/>
<path d="M144.936 37.2017C144.869 37.2003 144.803 37.1961 144.736 37.1933C144.803 37.1961 144.87 37.1989 144.936 37.2017Z" fill="black"/>
<path d="M145.572 0.211372C145.548 0.211372 145.523 0.211372 145.5 0.211372C145.476 0.211372 145.45 0.211372 145.427 0.211372C135.29 0.251591 127.086 8.51727 127.086 18.7107C127.086 18.8549 127.089 18.9978 127.091 19.1406C127.091 19.1822 127.094 19.2224 127.096 19.264C127.098 19.3722 127.103 19.479 127.108 19.5872C127.109 19.626 127.112 19.6662 127.114 19.7051C127.12 19.8465 127.13 19.9894 127.14 20.1294C127.14 20.1391 127.141 20.1475 127.143 20.1572C127.152 20.2903 127.165 20.4221 127.177 20.5538C127.181 20.5926 127.185 20.6301 127.189 20.6689C127.201 20.7813 127.214 20.8922 127.228 21.0032C127.232 21.0351 127.235 21.067 127.239 21.0975C127.257 21.2403 127.276 21.3832 127.299 21.5246C127.299 21.5302 127.3 21.5357 127.301 21.5426C127.322 21.6786 127.344 21.8131 127.368 21.9476C127.373 21.9753 127.377 22.0045 127.383 22.0322C127.406 22.1584 127.43 22.2846 127.455 22.4094C127.457 22.4233 127.46 22.4372 127.463 22.451C127.522 22.7423 127.588 23.0321 127.662 23.3192C127.664 23.3303 127.667 23.34 127.67 23.3511C128.995 28.5088 132.479 32.7928 137.096 35.1768C137.11 35.1838 137.123 35.1921 137.138 35.199C137.234 35.2476 137.329 35.2947 137.424 35.3419C137.659 35.457 137.895 35.5666 138.135 35.6706V31.6625L141.02 21.2403C139.854 18.0949 140.897 16.1214 141.758 15.0119C142.616 13.9024 145.256 13.6556 145.87 15.3198C146.484 16.9854 145.747 18.7121 144.949 21.2403C144.151 23.7686 144.581 25.0015 145.441 25.6796C146.301 26.3578 148.449 26.9126 150.597 24.9391C152.745 22.9656 154.586 16.4903 151.334 12.7292C148.08 8.968 140.96 9.46033 138.199 14.1479C135.436 18.8341 138.567 22.7811 138.567 22.7811L137.83 25.4938C137.83 25.4938 132.797 22.9656 133.778 16.5527C134.822 10.1399 141.328 5.63815 149.001 7.42581C156.673 9.21347 158.821 18.0935 156.305 22.9656C153.788 27.8986 151.026 29.1939 147.772 29.255C144.581 29.316 143.475 27.0346 143.475 27.0346L142.431 32.8927L140.59 36.5304C141.947 36.8979 143.304 37.1295 144.735 37.192C144.801 37.1947 144.869 37.1975 144.935 37.2003C144.988 37.2017 145.042 37.203 145.094 37.2044C145.228 37.2072 145.363 37.21 145.499 37.21C145.522 37.21 145.547 37.21 145.57 37.21C155.707 37.1712 163.913 28.9041 163.913 18.7107C163.913 8.51727 155.709 0.251591 145.572 0.211372Z" fill="#3C2657"/>
<path d="M187.326 0.211372C177.156 0.211372 168.912 8.49369 168.912 18.7107C168.912 28.9277 177.156 37.21 187.326 37.21C197.496 37.21 205.74 28.9277 205.74 18.7107C205.74 8.49369 197.496 0.211372 187.326 0.211372Z" fill="#3C2657"/>
<path d="M190.16 20.1419C189.921 20.3832 189.112 21.4983 189.112 21.4983C189.112 21.4983 188.136 21.6938 186.313 20.1253C184.489 18.5567 184.531 17.5596 184.531 17.5596C184.531 17.5596 185.502 16.5832 185.703 16.31C185.904 16.0354 184.428 13.6861 184.133 13.6195C183.838 13.553 182.273 13.8081 181.876 15.1811C181.478 16.5555 182.206 19.1794 185.043 21.6175C187.88 24.057 190.573 24.3732 191.862 23.7658C193.152 23.1583 193.16 21.5662 193.049 21.2833C192.939 21.0004 190.4 19.8992 190.161 20.1405L190.16 20.1419Z" fill="white"/>
<path d="M197.009 16.4959C196.42 13.8927 194.86 11.6793 192.617 10.2619C191.03 9.25924 189.2 8.72807 187.325 8.72807C184.671 8.72807 182.176 9.76683 180.299 11.653C178.423 13.5391 177.389 16.0451 177.389 18.7121C177.389 20.6024 177.917 22.4399 178.92 24.0348L177.801 28.3688L182.291 27.3161C183.818 28.219 185.549 28.6947 187.305 28.6947C188.047 28.6947 188.795 28.6101 189.528 28.4423C192.117 27.8501 194.32 26.2815 195.734 24.0251C197.145 21.7715 197.597 19.0976 197.008 16.4945L197.009 16.4959ZM180.466 23.7727L180.285 23.5037C179.327 22.0835 178.82 20.4262 178.82 18.7107C178.82 16.4279 179.705 14.2811 181.312 12.6668C182.919 11.0524 185.054 10.1635 187.327 10.1635C188.932 10.1635 190.498 10.617 191.856 11.4768C195.826 13.9857 197.023 19.2724 194.526 23.261C193.315 25.1929 191.429 26.5353 189.214 27.0429C186.998 27.5491 184.719 27.1594 182.796 25.9431L182.543 25.7837L179.781 26.4313L180.467 23.7741L180.466 23.7727Z" fill="white"/>
</g>
<defs>
<clipPath id="clip0_744_2">
<rect width="205.478" height="38.5773" fill="white" transform="translate(0.261719 0.211372)"/>
</clipPath>
</defs>
</svg>
